<?xml version="1.0" encoding="utf-8"?>
<!-- Generator: Adobe Illustrator 21.0.1, SVG Export Plug-In . SVG Version: 6.00 Build 0)  -->
<svg version="1.1" id="Layer_1" xmlns="http://www.w3.org/2000/svg" xmlns:xlink="http://www.w3.org/1999/xlink" x="0px" y="0px"
	 viewBox="0 0 1000 1000" style="enable-background:new 0 0 1000 1000;" xml:space="preserve">
<style type="text/css">
	.st0{fill:none;}
	.st1{fill:#ED1C24;}
	.st2{font-family:'Phosphate-Inline';}
	.st3{font-size:48px;}
</style>
<rect x="329" y="282.6" class="st0" width="342" height="45.4"/>
<text transform="matrix(1 0 0 1 328.9678 314.6606)" class="st1 st2 st3">Movie reviewr</text>
<g>
	<line x1="329" y1="328" x2="671" y2="328"/>
	<g>
		<path class="st1" d="M329,333c11.4,0,22.7,0,34.1,0c27.1,0,54.3,0,81.4,0c33,0,66,0,99,0c28.4,0,56.8,0,85.2,0c13.8,0,28,1,41.7,0
			c0.2,0,0.4,0,0.6,0c6.4,0,6.4-10,0-10c-11.4,0-22.7,0-34.1,0c-27.1,0-54.3,0-81.4,0c-33,0-66,0-99,0c-28.4,0-56.8,0-85.2,0
			c-13.8,0-28-1-41.7,0c-0.2,0-0.4,0-0.6,0C322.6,323,322.6,333,329,333L329,333z"/>
	</g>
</g>
</svg>
