<?xml version="1.0" encoding="utf-8"?>
<!-- Generator: Adobe Illustrator 21.0.1, SVG Export Plug-In . SVG Version: 6.00 Build 0)  -->
<svg version="1.1" id="Layer_1" xmlns="http://www.w3.org/2000/svg" xmlns:xlink="http://www.w3.org/1999/xlink" x="0px" y="0px"
	 viewBox="0 0 233 48.5" style="enable-background:new 0 0 233 48.5;" xml:space="preserve">
<style type="text/css">
	.st0{fill:none;}
	.st1{fill:#ED1C24;}
	.st2{font-family:'Phosphate-Inline';}
	.st3{font-size:41.6501px;}
	.st4{fill:#F9F9F9;stroke:#000000;stroke-width:0.5;stroke-miterlimit:10;}
	.st5{fill:#FFFFFF;stroke:#070000;stroke-miterlimit:10;}
</style>
<rect x="6.9" y="5.6" class="st0" width="337" height="39.4"/>
<text transform="matrix(1.1357 0 0 1 6.8545 33.4253)" class="st1 st2 st3">Mvi rvwr</text>
<g>
	<line class="st0" x1="8.1" y1="41.1" x2="225.2" y2="41.1"/>
	<g>
		<path class="st1" d="M8.1,45.7c24.5,0,48.9,0,73.4,0c38.9,0,78,0,116.9,0c8.9,0,17.8,0,26.8,0c4.2,0,4.2-9.2,0-9.2
			c-24.5,0-48.9,0-73.4,0c-38.9,0-78,0-116.9,0c-8.9,0-17.8,0-26.8,0C4,36.5,4,45.7,8.1,45.7L8.1,45.7z"/>
	</g>
</g>
<path class="st4" d="M337.7,46.5"/>
<line class="st5" x1="12.9" y1="41" x2="219.2" y2="41.1"/>
</svg>
