<?xml version="1.0" encoding="utf-8"?>
<!-- Generator: Adobe Illustrator 21.0.1, SVG Export Plug-In . SVG Version: 6.00 Build 0)  -->
<svg version="1.1" id="Layer_1" xmlns="http://www.w3.org/2000/svg" xmlns:xlink="http://www.w3.org/1999/xlink" x="0px" y="0px"
	 viewBox="0 0 344.8 54" style="enable-background:new 0 0 344.8 54;" xml:space="preserve">
<style type="text/css">
	.st0{fill:none;}
	.st1{fill:#ED1C24;}
	.st2{font-family:'Phosphate-Inline';}
	.st3{font-size:41.6501px;}
</style>
<rect x="-1.3" y="5.6" class="st0" width="337" height="39.4"/>
<text transform="matrix(1.1357 0 0 1 -1.3455 33.4253)" class="st1 st2 st3">Movie reviewr</text>
<g>
	<line class="st0" x1="-1.3" y1="45" x2="335.7" y2="45"/>
	<g>
		<path class="st1" d="M-1.3,50c38,0,76,0,113.9,0c60.5,0,121.1,0,181.5,0c13.8,0,27.7,0,41.5,0c6.5,0,6.5-10,0-10
			c-38,0-76,0-113.9,0c-60.5,0-121.1,0-181.5,0c-13.8,0-27.7,0-41.5,0C-7.8,40-7.8,50-1.3,50L-1.3,50z"/>
	</g>
</g>
</svg>
